<svg xmlns="http://www.w3.org/2000/svg" xmlns:xlink="http://www.w3.org/1999/xlink" width="590" zoomAndPan="magnify" viewBox="0 0 442.5 565.499966" height="754" preserveAspectRatio="xMidYMid meet" version="1.0"><defs><g/></defs><g fill="#000000" fill-opacity="1"><g transform="translate(91.966255, 408.38312)"><g><path d="M 22.3125 -222.484375 L 147.90625 -222.484375 C 160.863281 -222.484375 172.492188 -219.773438 182.796875 -214.359375 C 193.109375 -208.941406 201.289062 -201.609375 207.34375 -192.359375 C 213.40625 -183.117188 216.4375 -172.757812 216.4375 -161.28125 C 216.4375 -148.75 214.46875 -138.867188 210.53125 -131.640625 C 206.601562 -124.421875 203.148438 -119.320312 200.171875 -116.34375 C 202.929688 -109.113281 205.90625 -98.171875 209.09375 -83.515625 C 210.582031 -76.710938 212.28125 -70.492188 214.1875 -64.859375 C 216.101562 -59.234375 218.765625 -56.421875 222.171875 -56.421875 L 236.828125 -56.421875 C 240.441406 -56.421875 243.257812 -55.410156 245.28125 -53.390625 C 247.300781 -51.367188 248.3125 -48.976562 248.3125 -46.21875 C 248.3125 -44.09375 247.457031 -42.179688 245.75 -40.484375 C 247.457031 -38.359375 248.3125 -36.234375 248.3125 -34.109375 C 248.3125 -31.347656 247.457031 -29.113281 245.75 -27.40625 C 247.457031 -25.707031 248.3125 -23.691406 248.3125 -21.359375 C 248.3125 -19.660156 247.671875 -17.957031 246.390625 -16.25 C 248.734375 -14.34375 249.90625 -12.113281 249.90625 -9.5625 C 249.90625 -7.226562 249 -5.050781 247.1875 -3.03125 C 245.382812 -1.007812 242.992188 0 240.015625 0 L 149.5 0 L 132.59375 -66.625 C 128.5625 -66.832031 124.257812 -67.625 119.6875 -69 C 115.125 -70.382812 111.988281 -71.820312 110.28125 -73.3125 L 110.28125 0 L 22.3125 0 Z M 156.5 -72.359375 L 156.5 -65.65625 L 139.296875 -66.296875 L 154.59375 -6.6875 L 237.15625 -6.6875 C 238.21875 -6.6875 239.332031 -6.953125 240.5 -7.484375 C 241.664062 -8.015625 242.25 -8.921875 242.25 -10.203125 C 242.25 -11.691406 241.609375 -12.644531 240.328125 -13.0625 C 239.054688 -13.488281 237.890625 -13.703125 236.828125 -13.703125 L 227.90625 -13.703125 L 227.90625 -18.484375 L 237.15625 -18.484375 C 240.34375 -18.484375 241.9375 -19.65625 241.9375 -22 C 241.9375 -24.332031 240.34375 -25.5 237.15625 -25.5 L 227.90625 -25.5 L 227.90625 -30.59375 L 236.828125 -30.59375 C 240.234375 -30.59375 241.9375 -31.867188 241.9375 -34.421875 C 241.9375 -35.273438 241.507812 -36.070312 240.65625 -36.8125 C 239.800781 -37.5625 238.523438 -37.9375 236.828125 -37.9375 L 227.90625 -37.9375 L 227.90625 -43.03125 L 236.828125 -43.03125 C 237.890625 -43.03125 239.003906 -43.242188 240.171875 -43.671875 C 241.347656 -44.097656 241.9375 -44.945312 241.9375 -46.21875 C 241.9375 -48.550781 240.234375 -49.71875 236.828125 -49.71875 L 221.53125 -49.71875 C 217.28125 -49.71875 213.929688 -51.363281 211.484375 -54.65625 C 209.046875 -57.957031 207.296875 -61.675781 206.234375 -65.8125 C 205.171875 -69.957031 204.320312 -73.414062 203.6875 -76.1875 L 203.046875 -79.046875 C 200.703125 -89.460938 198.734375 -97.75 197.140625 -103.90625 C 195.546875 -110.070312 193.847656 -114.695312 192.046875 -117.78125 C 190.242188 -120.863281 187.957031 -123.039062 185.1875 -124.3125 C 182.425781 -125.582031 178.816406 -126.539062 174.359375 -127.1875 L 147.265625 -131.328125 L 148.21875 -138.015625 L 175.625 -133.875 C 181.15625 -133.019531 185.566406 -131.796875 188.859375 -130.203125 C 192.148438 -128.609375 194.859375 -126.007812 196.984375 -122.40625 C 199.535156 -125.375 202.296875 -129.992188 205.265625 -136.265625 C 208.242188 -142.535156 209.734375 -150.875 209.734375 -161.28125 C 209.734375 -171.695312 207.023438 -180.941406 201.609375 -189.015625 C 196.191406 -197.085938 188.804688 -203.515625 179.453125 -208.296875 C 170.109375 -213.078125 159.59375 -215.46875 147.90625 -215.46875 L 110.921875 -215.46875 L 105.828125 -211.96875 C 98.597656 -206.863281 90.625 -200.859375 81.90625 -193.953125 C 73.195312 -187.046875 64.804688 -179.238281 56.734375 -170.53125 C 48.660156 -161.820312 42.019531 -152.207031 36.8125 -141.6875 C 31.601562 -131.164062 29 -119.847656 29 -107.734375 L 29 -6.6875 L 102.953125 -6.6875 L 102.953125 -78.734375 C 101.046875 -80.640625 98.972656 -82.972656 96.734375 -85.734375 C 94.503906 -88.503906 92.859375 -90.953125 91.796875 -93.078125 C 90.523438 -93.078125 89.195312 -92.96875 87.8125 -92.75 C 86.4375 -92.539062 84.6875 -92.4375 82.5625 -92.4375 C 79.15625 -92.4375 75.695312 -92.703125 72.1875 -93.234375 C 68.6875 -93.765625 65.769531 -94.664062 63.4375 -95.9375 L 66.625 -102 C 68.101562 -101.144531 70.4375 -100.347656 73.625 -99.609375 C 76.8125 -98.867188 80.109375 -98.5 83.515625 -98.5 C 84.785156 -98.5 85.953125 -98.601562 87.015625 -98.8125 C 88.078125 -99.019531 89.035156 -99.234375 89.890625 -99.453125 C 89.035156 -101.785156 88.34375 -104.332031 87.8125 -107.09375 C 87.28125 -109.863281 87.015625 -112.945312 87.015625 -116.34375 C 87.015625 -126.113281 88.394531 -134.503906 91.15625 -141.515625 C 93.925781 -148.535156 96.742188 -153.957031 99.609375 -157.78125 C 102.472656 -161.601562 104.015625 -163.625 104.234375 -163.84375 L 109.015625 -159.375 C 109.015625 -159.375 107.738281 -157.726562 105.1875 -154.4375 C 102.632812 -151.144531 100.082031 -146.3125 97.53125 -139.9375 C 94.988281 -133.5625 93.71875 -125.695312 93.71875 -116.34375 C 93.71875 -109.96875 95.203125 -103.59375 98.171875 -97.21875 C 101.148438 -90.84375 105.613281 -85.421875 111.5625 -80.953125 C 117.507812 -76.492188 125.050781 -74.050781 134.1875 -73.625 Z M 156.5 -72.359375 "/></g></g></g></svg>