<svg xmlns="http://www.w3.org/2000/svg" xmlns:xlink="http://www.w3.org/1999/xlink" width="1074" zoomAndPan="magnify" viewBox="0 0 805.5 1028.999953" height="1372" preserveAspectRatio="xMidYMid meet" version="1.0"><defs><g/><clipPath id="75950b4b5a"><path d="M 0 0.320312 L 805 0.320312 L 805 1028.679688 L 0 1028.679688 Z M 0 0.320312 " clip-rule="nonzero"/></clipPath></defs><g clip-path="url(#75950b4b5a)"><path fill="#ffffff" d="M 0 0.320312 L 805 0.320312 L 805 1028.679688 L 0 1028.679688 Z M 0 0.320312 " fill-opacity="1" fill-rule="nonzero"/></g><g fill="#000000" fill-opacity="1"><g transform="translate(167.443507, 743.738356)"><g><path d="M 40.625 -405.09375 L 269.28125 -405.09375 C 292.882812 -405.09375 314.066406 -400.160156 332.828125 -390.296875 C 351.597656 -380.429688 366.492188 -367.082031 377.515625 -350.25 C 388.546875 -333.414062 394.0625 -314.550781 394.0625 -293.65625 C 394.0625 -270.832031 390.484375 -252.84375 383.328125 -239.6875 C 376.171875 -226.53125 369.882812 -217.242188 364.46875 -211.828125 C 369.5 -198.671875 374.914062 -178.742188 380.71875 -152.046875 C 383.425781 -139.671875 386.519531 -128.351562 390 -118.09375 C 393.476562 -107.84375 398.316406 -102.71875 404.515625 -102.71875 L 431.203125 -102.71875 C 437.785156 -102.71875 442.910156 -100.878906 446.578125 -97.203125 C 450.253906 -93.535156 452.09375 -89.1875 452.09375 -84.15625 C 452.09375 -80.28125 450.546875 -76.796875 447.453125 -73.703125 C 450.546875 -69.835938 452.09375 -65.96875 452.09375 -62.09375 C 452.09375 -57.0625 450.546875 -53 447.453125 -49.90625 C 450.546875 -46.8125 452.09375 -43.140625 452.09375 -38.890625 C 452.09375 -35.785156 450.9375 -32.6875 448.625 -29.59375 C 452.875 -26.113281 455 -22.050781 455 -17.40625 C 455 -13.15625 453.351562 -9.191406 450.0625 -5.515625 C 446.78125 -1.835938 442.429688 0 437.015625 0 L 272.1875 0 L 241.421875 -121.296875 C 234.078125 -121.679688 226.242188 -123.128906 217.921875 -125.640625 C 209.609375 -128.160156 203.898438 -130.773438 200.796875 -133.484375 L 200.796875 0 L 40.625 0 Z M 284.953125 -131.734375 L 284.953125 -119.546875 L 253.609375 -120.71875 L 281.46875 -12.1875 L 431.78125 -12.1875 C 433.71875 -12.1875 435.75 -12.671875 437.875 -13.640625 C 440.007812 -14.609375 441.078125 -16.253906 441.078125 -18.578125 C 441.078125 -21.285156 439.914062 -23.023438 437.59375 -23.796875 C 435.269531 -24.566406 433.140625 -24.953125 431.203125 -24.953125 L 414.953125 -24.953125 L 414.953125 -33.65625 L 431.78125 -33.65625 C 437.59375 -33.65625 440.5 -35.785156 440.5 -40.046875 C 440.5 -44.296875 437.59375 -46.421875 431.78125 -46.421875 L 414.953125 -46.421875 L 414.953125 -55.71875 L 431.203125 -55.71875 C 437.398438 -55.71875 440.5 -58.035156 440.5 -62.671875 C 440.5 -64.222656 439.722656 -65.675781 438.171875 -67.03125 C 436.617188 -68.382812 434.296875 -69.0625 431.203125 -69.0625 L 414.953125 -69.0625 L 414.953125 -78.34375 L 431.203125 -78.34375 C 433.140625 -78.34375 435.171875 -78.726562 437.296875 -79.5 C 439.429688 -80.28125 440.5 -81.832031 440.5 -84.15625 C 440.5 -88.40625 437.398438 -90.53125 431.203125 -90.53125 L 403.34375 -90.53125 C 395.613281 -90.53125 389.519531 -93.53125 385.0625 -99.53125 C 380.613281 -105.53125 377.421875 -112.300781 375.484375 -119.84375 C 373.554688 -127.382812 372.007812 -133.671875 370.84375 -138.703125 L 369.6875 -143.921875 C 365.4375 -162.878906 361.859375 -177.96875 358.953125 -189.1875 C 356.046875 -200.414062 352.945312 -208.832031 349.65625 -214.4375 C 346.375 -220.050781 342.21875 -224.019531 337.1875 -226.34375 C 332.15625 -228.664062 325.578125 -230.40625 317.453125 -231.5625 L 268.125 -239.109375 L 269.859375 -251.296875 L 319.78125 -243.75 C 329.84375 -242.195312 337.867188 -239.96875 343.859375 -237.0625 C 349.859375 -234.164062 354.789062 -229.429688 358.65625 -222.859375 C 363.300781 -228.273438 368.332031 -236.6875 373.75 -248.09375 C 379.164062 -259.507812 381.875 -274.695312 381.875 -293.65625 C 381.875 -312.613281 376.941406 -329.441406 367.078125 -344.140625 C 357.210938 -358.847656 343.765625 -370.554688 326.734375 -379.265625 C 309.710938 -387.972656 290.5625 -392.328125 269.28125 -392.328125 L 201.96875 -392.328125 L 192.671875 -385.9375 C 179.523438 -376.65625 165.019531 -365.722656 149.15625 -353.140625 C 133.289062 -340.566406 118.003906 -326.347656 103.296875 -310.484375 C 88.597656 -294.628906 76.507812 -277.125 67.03125 -257.96875 C 57.550781 -238.8125 52.8125 -218.207031 52.8125 -196.15625 L 52.8125 -12.1875 L 187.453125 -12.1875 L 187.453125 -143.34375 C 183.972656 -146.832031 180.203125 -151.085938 176.140625 -156.109375 C 172.078125 -161.140625 169.078125 -165.59375 167.140625 -169.46875 C 164.816406 -169.46875 162.394531 -169.269531 159.875 -168.875 C 157.363281 -168.488281 154.175781 -168.296875 150.3125 -168.296875 C 144.125 -168.296875 137.835938 -168.78125 131.453125 -169.75 C 125.066406 -170.71875 119.742188 -172.363281 115.484375 -174.6875 L 121.296875 -185.71875 C 124.003906 -184.164062 128.257812 -182.710938 134.0625 -181.359375 C 139.863281 -180.003906 145.859375 -179.328125 152.046875 -179.328125 C 154.367188 -179.328125 156.5 -179.519531 158.4375 -179.90625 C 160.375 -180.289062 162.113281 -180.679688 163.65625 -181.078125 C 162.113281 -185.328125 160.859375 -189.96875 159.890625 -195 C 158.921875 -200.03125 158.4375 -205.640625 158.4375 -211.828125 C 158.4375 -229.628906 160.953125 -244.910156 165.984375 -257.671875 C 171.015625 -270.441406 176.140625 -280.304688 181.359375 -287.265625 C 186.585938 -294.234375 189.394531 -297.914062 189.78125 -298.3125 L 198.484375 -290.1875 C 198.484375 -290.1875 196.160156 -287.1875 191.515625 -281.1875 C 186.867188 -275.1875 182.222656 -266.378906 177.578125 -254.765625 C 172.941406 -243.160156 170.625 -228.847656 170.625 -211.828125 C 170.625 -200.222656 173.332031 -188.613281 178.75 -177 C 184.164062 -165.394531 192.289062 -155.53125 203.125 -147.40625 C 213.957031 -139.28125 227.691406 -134.832031 244.328125 -134.0625 Z M 284.953125 -131.734375 "/></g></g></g></svg>